M48
; DRILL file {KiCad 9.0.4-79-g0226481156} date 2025-11-12T21:04:49-0300
; FORMAT={-:-/ absolute / metric / decimal}
; #@! TF.CreationDate,2025-11-12T21:04:49-03:00
; #@! TF.GenerationSoftware,Kicad,Pcbnew,9.0.4-79-g0226481156
; #@! TF.FileFunction,MixedPlating,1,2
FMAT,2
METRIC
; #@! TA.AperFunction,Plated,PTH,ComponentDrill
T1C1.000
%
G90
G05
T1
X131.0Y-51.0
X131.0Y-53.54
X131.0Y-56.08
X131.0Y-58.62
X131.0Y-61.16
X131.0Y-63.7
X131.0Y-66.24
X131.0Y-68.78
X131.0Y-71.32
X131.0Y-73.86
X131.0Y-76.4
X131.0Y-78.94
X131.0Y-81.48
X131.0Y-84.02
X131.0Y-86.56
X131.0Y-89.1
X131.0Y-91.64
X131.0Y-94.18
X131.0Y-96.72
X154.0Y-51.0
X154.0Y-53.54
X154.0Y-56.08
X154.0Y-58.62
X154.0Y-61.16
X154.0Y-63.7
X154.0Y-66.24
X154.0Y-68.78
X154.0Y-71.32
X154.0Y-73.86
X154.0Y-76.4
X154.0Y-78.94
X154.0Y-81.48
X154.0Y-84.02
X154.0Y-86.56
X154.0Y-89.1
X154.0Y-91.64
X154.0Y-94.18
X154.0Y-96.72
X160.5Y-60.0
X160.5Y-62.5
X160.5Y-77.0
X160.5Y-79.5
X160.525Y-68.5
X160.525Y-71.0
X160.525Y-85.5
X160.525Y-88.0
M30
