M48
; DRILL file {KiCad 9.0.2} date 2025-11-10T23:30:29-0300
; FORMAT={-:-/ absolute / metric / decimal}
; #@! TF.CreationDate,2025-11-10T23:30:29-03:00
; #@! TF.GenerationSoftware,Kicad,Pcbnew,9.0.2
; #@! TF.FileFunction,MixedPlating,1,2
FMAT,2
METRIC
; #@! TA.AperFunction,Plated,PTH,ComponentDrill
T1C1.000
%
G90
G05
T1
X110.0Y-67.5
X110.0Y-70.0
X116.0Y-59.83
X116.0Y-62.37
X116.0Y-64.91
X116.0Y-67.45
X116.0Y-69.99
X116.0Y-72.53
X116.0Y-75.07
X116.0Y-77.61
X116.0Y-80.15
X116.0Y-82.69
X116.0Y-85.23
X116.0Y-87.77
X116.0Y-90.31
X116.0Y-92.85
X116.0Y-95.39
X116.0Y-97.93
X116.0Y-100.47
X116.0Y-103.01
X116.0Y-105.55
X126.5Y-55.0
X129.0Y-55.0
X139.0Y-59.83
X139.0Y-62.37
X139.0Y-64.91
X139.0Y-67.45
X139.0Y-69.99
X139.0Y-72.53
X139.0Y-75.07
X139.0Y-77.61
X139.0Y-80.15
X139.0Y-82.69
X139.0Y-85.23
X139.0Y-87.77
X139.0Y-90.31
X139.0Y-92.85
X139.0Y-95.39
X139.0Y-97.93
X139.0Y-100.47
X139.0Y-103.01
X139.0Y-105.55
X145.054Y-80.259
X145.054Y-82.759
X145.054Y-85.259
M30
