%TF.GenerationSoftware,KiCad,Pcbnew,9.0.2*%
%TF.CreationDate,2025-11-03T21:01:43-03:00*%
%TF.ProjectId,Sensores,53656e73-6f72-4657-932e-6b696361645f,rev?*%
%TF.SameCoordinates,Original*%
%TF.FileFunction,Copper,L1,Top*%
%TF.FilePolarity,Positive*%
%FSLAX46Y46*%
G04 Gerber Fmt 4.6, Leading zero omitted, Abs format (unit mm)*
G04 Created by KiCad (PCBNEW 9.0.2) date 2025-11-03 21:01:43*
%MOMM*%
%LPD*%
G01*
G04 APERTURE LIST*
%TA.AperFunction,ComponentPad*%
%ADD10C,2.000000*%
%TD*%
%TA.AperFunction,Conductor*%
%ADD11C,0.600000*%
%TD*%
%TA.AperFunction,Conductor*%
%ADD12C,0.200000*%
%TD*%
G04 APERTURE END LIST*
D10*
%TO.P,J2,1,Pin_1*%
%TO.N,/RX*%
X170231742Y-56063348D03*
%TO.P,J2,2,Pin_2*%
%TO.N,/TX*%
X167731742Y-56063348D03*
%TO.P,J2,3,Pin_3*%
%TO.N,/OUT*%
X165231742Y-56063348D03*
%TO.P,J2,4,Pin_4*%
%TO.N,/SCL*%
X162731742Y-56063348D03*
%TO.P,J2,5,Pin_5*%
%TO.N,/SDA*%
X160231742Y-56063348D03*
%TD*%
%TO.P,3.3V,1,Pin_1*%
%TO.N,/3Vo*%
X180500000Y-56000000D03*
%TO.P,3.3V,2,Pin_2*%
%TO.N,GND*%
X178000000Y-56000000D03*
%TD*%
%TO.P,VEML7700,1,Pin_1*%
%TO.N,unconnected-(VEML7700-Pin_1-Pad1)*%
X175137939Y-109233923D03*
%TO.P,VEML7700,2,Pin_2*%
%TO.N,/3Vo*%
X172597939Y-109233923D03*
%TO.P,VEML7700,3,Pin_3*%
%TO.N,GND*%
X170057939Y-109233923D03*
%TO.P,VEML7700,4,Pin_4*%
%TO.N,/SCL*%
X167517939Y-109233923D03*
%TO.P,VEML7700,5,Pin_5*%
%TO.N,/SDA*%
X164977939Y-109233923D03*
%TD*%
%TO.P,C4001,1,Pin_1*%
%TO.N,/3Vo*%
X175295030Y-90095501D03*
%TO.P,C4001,2,Pin_2*%
%TO.N,GND*%
X172755030Y-90095501D03*
%TO.P,C4001,3,Pin_3*%
%TO.N,/RX*%
X170215030Y-90095501D03*
%TO.P,C4001,4,Pin_4*%
%TO.N,/TX*%
X167675030Y-90095501D03*
%TO.P,C4001,5,Pin_5*%
%TO.N,/OUT*%
X165135030Y-90095501D03*
%TD*%
D11*
%TO.N,GND*%
X172755030Y-69244970D02*
X178000000Y-64000000D01*
X178000000Y-64000000D02*
X178000000Y-56000000D01*
X170057939Y-103942061D02*
X172755030Y-101244970D01*
X172755030Y-101244970D02*
X172755030Y-90095501D01*
X170057939Y-109233923D02*
X170057939Y-103942061D01*
X172755030Y-90095501D02*
X172755030Y-69244970D01*
%TO.N,/RX*%
X170231742Y-56063348D02*
X170231742Y-90078789D01*
D12*
X170231742Y-90078789D02*
X170215030Y-90095501D01*
%TO.N,/OUT*%
X165135030Y-56160060D02*
X165231742Y-56063348D01*
X165538752Y-56038752D02*
X165500000Y-56000000D01*
D11*
X165135030Y-90095501D02*
X165135030Y-56160060D01*
%TO.N,/TX*%
X167731742Y-56063348D02*
X167731742Y-90038789D01*
D12*
X167731742Y-90038789D02*
X167675030Y-90095501D01*
D11*
%TO.N,/3Vo*%
X175295030Y-102704970D02*
X172597939Y-105402061D01*
X175295030Y-90095501D02*
X175295030Y-70704970D01*
X175295030Y-70704970D02*
X180500000Y-65500000D01*
X172597939Y-105402061D02*
X172597939Y-109233923D01*
X175295030Y-90095501D02*
X175295030Y-102704970D01*
X180500000Y-65500000D02*
X180500000Y-56000000D01*
%TO.N,/SCL*%
X162000000Y-100000000D02*
X162000000Y-69463484D01*
X167517939Y-109233923D02*
X167517939Y-105517939D01*
X162000000Y-69463484D02*
X162731742Y-68731742D01*
X162731742Y-68731742D02*
X162731742Y-56063348D01*
X167517939Y-105517939D02*
X162000000Y-100000000D01*
%TO.N,/SDA*%
X164977939Y-106022061D02*
X164977939Y-109233923D01*
D12*
X160458752Y-56041248D02*
X160500000Y-56000000D01*
D11*
X160231742Y-56063348D02*
X160231742Y-101231742D01*
X160231742Y-101231742D02*
X165000000Y-106000000D01*
D12*
X165000000Y-106000000D02*
X164977939Y-106022061D01*
%TD*%
M02*
