%TF.GenerationSoftware,KiCad,Pcbnew,9.0.4-79-g0226481156*%
%TF.CreationDate,2025-12-01T17:23:27-03:00*%
%TF.ProjectId,Rele,52656c65-2e6b-4696-9361-645f70636258,rev?*%
%TF.SameCoordinates,Original*%
%TF.FileFunction,Copper,L1,Top*%
%TF.FilePolarity,Positive*%
%FSLAX46Y46*%
G04 Gerber Fmt 4.6, Leading zero omitted, Abs format (unit mm)*
G04 Created by KiCad (PCBNEW 9.0.4-79-g0226481156) date 2025-12-01 17:23:27*
%MOMM*%
%LPD*%
G01*
G04 APERTURE LIST*
G04 Aperture macros list*
%AMRoundRect*
0 Rectangle with rounded corners*
0 $1 Rounding radius*
0 $2 $3 $4 $5 $6 $7 $8 $9 X,Y pos of 4 corners*
0 Add a 4 corners polygon primitive as box body*
4,1,4,$2,$3,$4,$5,$6,$7,$8,$9,$2,$3,0*
0 Add four circle primitives for the rounded corners*
1,1,$1+$1,$2,$3*
1,1,$1+$1,$4,$5*
1,1,$1+$1,$6,$7*
1,1,$1+$1,$8,$9*
0 Add four rect primitives between the rounded corners*
20,1,$1+$1,$2,$3,$4,$5,0*
20,1,$1+$1,$4,$5,$6,$7,0*
20,1,$1+$1,$6,$7,$8,$9,0*
20,1,$1+$1,$8,$9,$2,$3,0*%
G04 Aperture macros list end*
%TA.AperFunction,SMDPad,CuDef*%
%ADD10RoundRect,0.250000X0.625000X-0.400000X0.625000X0.400000X-0.625000X0.400000X-0.625000X-0.400000X0*%
%TD*%
%TA.AperFunction,ComponentPad*%
%ADD11C,1.000000*%
%TD*%
%TA.AperFunction,ComponentPad*%
%ADD12RoundRect,0.312500X0.687500X-0.687500X0.687500X0.687500X-0.687500X0.687500X-0.687500X-0.687500X0*%
%TD*%
%TA.AperFunction,ComponentPad*%
%ADD13C,2.000000*%
%TD*%
%TA.AperFunction,ComponentPad*%
%ADD14C,3.000000*%
%TD*%
%TA.AperFunction,SMDPad,CuDef*%
%ADD15RoundRect,0.250000X-0.625000X0.400000X-0.625000X-0.400000X0.625000X-0.400000X0.625000X0.400000X0*%
%TD*%
%TA.AperFunction,SMDPad,CuDef*%
%ADD16RoundRect,0.250000X-0.325000X-0.450000X0.325000X-0.450000X0.325000X0.450000X-0.325000X0.450000X0*%
%TD*%
%TA.AperFunction,ComponentPad*%
%ADD17R,3.000000X3.000000*%
%TD*%
%TA.AperFunction,ComponentPad*%
%ADD18RoundRect,0.250000X0.750000X-0.600000X0.750000X0.600000X-0.750000X0.600000X-0.750000X-0.600000X0*%
%TD*%
%TA.AperFunction,ComponentPad*%
%ADD19O,2.000000X1.700000*%
%TD*%
%TA.AperFunction,ComponentPad*%
%ADD20C,1.400000*%
%TD*%
%TA.AperFunction,Conductor*%
%ADD21C,1.000000*%
%TD*%
%TA.AperFunction,Conductor*%
%ADD22C,0.600000*%
%TD*%
%TA.AperFunction,Conductor*%
%ADD23C,0.200000*%
%TD*%
G04 APERTURE END LIST*
D10*
%TO.P,R2,1*%
%TO.N,Net-(Q1-G)*%
X166000000Y-55050000D03*
%TO.P,R2,2*%
%TO.N,/NEUTRAL*%
X166000000Y-51950000D03*
%TD*%
D11*
%TO.P,U1,5,NC*%
%TO.N,unconnected-(U1-NC-Pad5)*%
X171500000Y-58685000D03*
D12*
%TO.P,U1,1*%
%TO.N,Net-(D2-A)*%
X174040000Y-66305000D03*
D13*
%TO.P,U1,2*%
%TO.N,Net-(R3-Pad2)*%
X171500000Y-66305000D03*
%TO.P,U1,3,NC*%
%TO.N,unconnected-(U1-NC-Pad3)*%
X168960000Y-66305000D03*
%TO.P,U1,4*%
%TO.N,Net-(Q1-G)*%
X168960000Y-58685000D03*
%TO.P,U1,6*%
%TO.N,Net-(R1-Pad1)*%
X174040000Y-58685000D03*
%TD*%
D10*
%TO.P,R1,1*%
%TO.N,Net-(R1-Pad1)*%
X171500000Y-55050000D03*
%TO.P,R1,2*%
%TO.N,/HOT*%
X171500000Y-51950000D03*
%TD*%
D14*
%TO.P,,3,G*%
%TO.N,Net-(Q1-G)*%
X177000000Y-48000000D03*
%TD*%
D10*
%TO.P,R3,2*%
%TO.N,Net-(R3-Pad2)*%
X168500000Y-70450000D03*
%TO.P,R3,1*%
%TO.N,GND*%
X168500000Y-73550000D03*
%TD*%
D15*
%TO.P,R5,2*%
%TO.N,GND*%
X171500000Y-73550000D03*
%TO.P,R5,1*%
%TO.N,Net-(D2-K)*%
X171500000Y-70450000D03*
%TD*%
D16*
%TO.P,D2,2,A*%
%TO.N,Net-(D2-A)*%
X176025000Y-71000000D03*
%TO.P,D2,1,K*%
%TO.N,Net-(D2-K)*%
X173975000Y-71000000D03*
%TD*%
D17*
%TO.P,,1,A1*%
%TO.N,/NEUTRAL*%
X166000000Y-48000000D03*
%TD*%
D18*
%TO.P,J2,1,Pin_1*%
%TO.N,GND*%
X181696362Y-71559353D03*
D19*
%TO.P,J2,2,Pin_2*%
%TO.N,Net-(D2-A)*%
X181696362Y-69059353D03*
%TD*%
D20*
%TO.P,J3,2,Pin_2*%
%TO.N,unconnected-(J3-Pin_2-Pad2)*%
X157000000Y-48000000D03*
D14*
%TO.P,J3,1,Pin_1*%
%TO.N,/HOT*%
X157000000Y-44040000D03*
%TO.P,J3,3,Pin_3*%
%TO.N,/NEUTRAL*%
X157000000Y-51960000D03*
%TD*%
%TO.P,,2,A2*%
%TO.N,/HOT*%
X171504050Y-48000000D03*
%TD*%
D21*
%TO.N,Net-(D2-A)*%
X179500000Y-69000000D02*
X174500000Y-69000000D01*
X174500000Y-69000000D02*
X174040000Y-68540000D01*
X174040000Y-68540000D02*
X174040000Y-66305000D01*
%TO.N,Net-(R3-Pad2)*%
X168500000Y-69000000D02*
X168500000Y-70450000D01*
X169000000Y-68500000D02*
X168500000Y-69000000D01*
X171250000Y-68500000D02*
X169000000Y-68500000D01*
X171500000Y-68250000D02*
X171250000Y-68500000D01*
X171500000Y-66305000D02*
X171500000Y-68250000D01*
%TO.N,Net-(Q1-G)*%
X169500000Y-61000000D02*
X176000000Y-61000000D01*
X169000000Y-60500000D02*
X169500000Y-61000000D01*
X167185000Y-58185000D02*
X169000000Y-58185000D01*
X176000000Y-61000000D02*
X177000000Y-60000000D01*
X166000000Y-57000000D02*
X167185000Y-58185000D01*
X177000000Y-60000000D02*
X177000000Y-48000000D01*
X166000000Y-55100000D02*
X166000000Y-57000000D01*
X169000000Y-58185000D02*
X169000000Y-60500000D01*
%TO.N,Net-(D2-A)*%
X180000000Y-69000000D02*
X181000000Y-69000000D01*
X177310485Y-71000000D02*
X176025000Y-71000000D01*
%TO.N,GND*%
X176950000Y-73550000D02*
X171500000Y-73550000D01*
%TO.N,Net-(D2-K)*%
X173000000Y-71000000D02*
X173975000Y-71000000D01*
X172450000Y-70450000D02*
X173000000Y-71000000D01*
%TO.N,/HOT*%
X163000000Y-41000000D02*
X159960000Y-44040000D01*
D22*
%TO.N,/NEUTRAL*%
X166000000Y-52000000D02*
X165000000Y-52000000D01*
D21*
%TO.N,Net-(R1-Pad1)*%
X174080000Y-58185000D02*
X174080000Y-56080000D01*
%TO.N,/HOT*%
X159960000Y-44040000D02*
X157000000Y-44040000D01*
X171506180Y-49948080D02*
X171506180Y-52000000D01*
X171504050Y-48000000D02*
X171504050Y-42504050D01*
%TO.N,/NEUTRAL*%
X164960000Y-51960000D02*
X157000000Y-51960000D01*
%TO.N,Net-(R1-Pad1)*%
X174080000Y-56080000D02*
X173100000Y-55100000D01*
%TO.N,Net-(D2-A)*%
X179310485Y-69000000D02*
X177310485Y-71000000D01*
D22*
%TO.N,/NEUTRAL*%
X165000000Y-52000000D02*
X164960000Y-51960000D01*
%TO.N,/HOT*%
X171437596Y-48066454D02*
X171504050Y-48000000D01*
D23*
%TO.N,Net-(R1-Pad1)*%
X173912500Y-58097500D02*
X174000000Y-58185000D01*
D21*
%TO.N,GND*%
X178953277Y-71546723D02*
X176950000Y-73550000D01*
D22*
%TO.N,/HOT*%
X171504050Y-49945950D02*
X171506180Y-49948080D01*
D21*
%TO.N,GND*%
X171500000Y-73550000D02*
X168500000Y-73550000D01*
%TO.N,/HOT*%
X171504050Y-42504050D02*
X170000000Y-41000000D01*
%TO.N,Net-(D2-K)*%
X171500000Y-70450000D02*
X172450000Y-70450000D01*
%TO.N,Net-(D2-A)*%
X179500000Y-69000000D02*
X180000000Y-69000000D01*
%TO.N,/HOT*%
X171504050Y-48000000D02*
X171504050Y-49945950D01*
%TO.N,/NEUTRAL*%
X166000000Y-48000000D02*
X166000000Y-52000000D01*
D22*
%TO.N,Net-(D2-A)*%
X174080000Y-66080000D02*
X174080000Y-65805000D01*
D21*
%TO.N,GND*%
X180999341Y-71546723D02*
X178953277Y-71546723D01*
%TO.N,Net-(D2-A)*%
X179310485Y-69000000D02*
X179500000Y-69000000D01*
%TO.N,Net-(R1-Pad1)*%
X173100000Y-55100000D02*
X171506180Y-55100000D01*
%TO.N,/HOT*%
X170000000Y-41000000D02*
X163000000Y-41000000D01*
%TO.N,Net-(D2-A)*%
X180000000Y-69000000D02*
X179310485Y-69000000D01*
%TD*%
M02*
